<svg xmlns="http://www.w3.org/2000/svg" viewBox="0 0 64 64" width="64" height="64">
  <defs>
    <linearGradient id="g" x1="0" y1="0" x2="1" y2="1">
      <stop offset="0%" stop-color="#f0c46a"/>
      <stop offset="50%" stop-color="#d4a23c"/>
      <stop offset="100%" stop-color="#b07d22"/>
    </linearGradient>
    <linearGradient id="f" x1="0" y1="1" x2="0" y2="0">
      <stop offset="0%" stop-color="#b07d22"/>
      <stop offset="60%" stop-color="#f5a623"/>
      <stop offset="100%" stop-color="#f0c46a"/>
    </linearGradient>
  </defs>
  <rect width="64" height="64" rx="14" fill="#0a0a0c"/>
  <rect x="1.5" y="1.5" width="61" height="61" rx="13" fill="none" stroke="url(#g)" stroke-width="1.5" opacity="0.8"/>
  <circle cx="32" cy="12.5" r="2.8" fill="url(#g)"/>
  <rect x="31" y="13.5" width="2" height="36" rx="1" fill="url(#g)"/>
  <path d="M32 16 C 23 18, 20.5 26, 21.5 34 C 22 39.5, 26 42.5, 32 42.5 C 38 42.5, 42 39.5, 42.5 34 C 43.5 26, 41 18, 32 16 Z" fill="url(#g)"/>
  <g stroke="#0a0a0c" stroke-width="1.4" opacity="0.55" stroke-linecap="round">
    <line x1="23" y1="23.5" x2="41" y2="23.5"/>
    <line x1="22" y1="29" x2="42" y2="29"/>
    <line x1="21.8" y1="34.5" x2="42.2" y2="34.5"/>
  </g>
  <path d="M32 44.5 c -3 2 -4.8 4 -4.8 6.8 c 0 2.7 2.1 4.8 4.8 4.8 c 2.7 0 4.8 -2.1 4.8 -4.8 c 0 -1.9 -1 -3.5 -2.3 -4.8 c .2 1.5 -.6 2.5 -1.5 2.7 c .8 -2.3 -.4 -4.6 -1 -6.4 Z" fill="url(#f)"/>
</svg>
